<mxfile host="Electron" agent="Mozilla/5.0 (Windows NT 10.0; Win64; x64) AppleWebKit/537.36 (KHTML, like Gecko) draw.io/27.0.9 Chrome/134.0.6998.205 Electron/35.4.0 Safari/537.36" version="27.0.9">
  <diagram name="Page-1" id="58cdce13-f638-feb5-8d6f-7d28b1aa9fa0">
    <mxGraphModel dx="3843" dy="2009" grid="1" gridSize="10" guides="1" tooltips="1" connect="1" arrows="1" fold="1" page="1" pageScale="1" pageWidth="1100" pageHeight="850" background="none" math="0" shadow="0">
      <root>
        <mxCell id="0" />
        <mxCell id="1" parent="0" />
        <mxCell id="W7tiA6IGgYuLlRLCgEdG-73" value="" style="edgeStyle=orthogonalEdgeStyle;shape=connector;rounded=1;orthogonalLoop=1;jettySize=auto;html=1;strokeColor=#ff0000;align=left;verticalAlign=middle;fontFamily=Verdana;fontSize=12;fontColor=#000000;labelBackgroundColor=none;endArrow=open;endSize=8;entryX=0.511;entryY=-0.037;entryDx=0;entryDy=0;entryPerimeter=0;" parent="1" source="2a3bc250acf0617d-7" target="W7tiA6IGgYuLlRLCgEdG-11" edge="1">
          <mxGeometry relative="1" as="geometry">
            <mxPoint x="1205" y="760" as="targetPoint" />
          </mxGeometry>
        </mxCell>
        <mxCell id="2a3bc250acf0617d-7" value="Data Pipeline" style="swimlane;whiteSpace=wrap;html=1;rounded=1;shadow=0;comic=0;labelBackgroundColor=none;strokeWidth=1;fontFamily=Verdana;fontSize=12;align=center;" parent="1" vertex="1">
          <mxGeometry x="820" y="640" width="750" height="90" as="geometry" />
        </mxCell>
        <mxCell id="3cde6dad864a17aa-10" style="edgeStyle=elbowEdgeStyle;html=1;labelBackgroundColor=none;endArrow=open;endSize=8;strokeColor=#ff0000;fontFamily=Verdana;fontSize=12;align=left;" parent="2a3bc250acf0617d-7" source="382b91b5511bd0f7-8" target="3cde6dad864a17aa-1" edge="1">
          <mxGeometry relative="1" as="geometry" />
        </mxCell>
        <mxCell id="382b91b5511bd0f7-8" value="Collect images" style="rounded=1;whiteSpace=wrap;html=1;arcSize=24;fillColor=#ffffc0;strokeColor=#ff0000;shadow=0;comic=0;labelBackgroundColor=none;fontFamily=Verdana;fontSize=12;fontColor=#000000;align=center;" parent="2a3bc250acf0617d-7" vertex="1">
          <mxGeometry x="60" y="47.5" width="120" height="25" as="geometry" />
        </mxCell>
        <mxCell id="3cde6dad864a17aa-9" style="edgeStyle=elbowEdgeStyle;html=1;labelBackgroundColor=none;endArrow=open;endSize=8;strokeColor=#ff0000;fontFamily=Verdana;fontSize=12;align=left;" parent="2a3bc250acf0617d-7" source="2a3bc250acf0617d-3" target="382b91b5511bd0f7-8" edge="1">
          <mxGeometry relative="1" as="geometry" />
        </mxCell>
        <mxCell id="2a3bc250acf0617d-3" value="" style="ellipse;html=1;shape=startState;fillColor=#000000;strokeColor=#ff0000;rounded=1;shadow=0;comic=0;labelBackgroundColor=none;fontFamily=Verdana;fontSize=12;fontColor=#000000;align=center;direction=south;" parent="2a3bc250acf0617d-7" vertex="1">
          <mxGeometry x="10" y="45" width="30" height="30" as="geometry" />
        </mxCell>
        <mxCell id="3cde6dad864a17aa-11" style="edgeStyle=elbowEdgeStyle;html=1;labelBackgroundColor=none;endArrow=open;endSize=8;strokeColor=#ff0000;fontFamily=Verdana;fontSize=12;align=left;" parent="2a3bc250acf0617d-7" source="3cde6dad864a17aa-1" target="3cde6dad864a17aa-2" edge="1">
          <mxGeometry relative="1" as="geometry" />
        </mxCell>
        <mxCell id="3cde6dad864a17aa-1" value="Preprocess images" style="rounded=1;whiteSpace=wrap;html=1;arcSize=24;fillColor=#ffffc0;strokeColor=#ff0000;shadow=0;comic=0;labelBackgroundColor=none;fontFamily=Verdana;fontSize=12;fontColor=#000000;align=center;" parent="2a3bc250acf0617d-7" vertex="1">
          <mxGeometry x="220" y="47.5" width="130" height="25" as="geometry" />
        </mxCell>
        <mxCell id="3cde6dad864a17aa-12" style="edgeStyle=elbowEdgeStyle;html=1;labelBackgroundColor=none;endArrow=open;endSize=8;strokeColor=#ff0000;fontFamily=Verdana;fontSize=12;align=left;entryX=0;entryY=0.5;entryDx=0;entryDy=0;" parent="2a3bc250acf0617d-7" source="3cde6dad864a17aa-2" target="382b91b5511bd0f7-9" edge="1">
          <mxGeometry relative="1" as="geometry">
            <mxPoint x="745" y="142.5" as="targetPoint" />
          </mxGeometry>
        </mxCell>
        <mxCell id="3cde6dad864a17aa-2" value="Augment images" style="rounded=1;whiteSpace=wrap;html=1;arcSize=24;fillColor=#ffffc0;strokeColor=#ff0000;shadow=0;comic=0;labelBackgroundColor=none;fontFamily=Verdana;fontSize=12;fontColor=#000000;align=center;" parent="2a3bc250acf0617d-7" vertex="1">
          <mxGeometry x="390" y="47.5" width="120" height="25" as="geometry" />
        </mxCell>
        <mxCell id="382b91b5511bd0f7-9" value="Generate Masks" style="rounded=1;whiteSpace=wrap;html=1;arcSize=24;fillColor=#ffffc0;strokeColor=#ff0000;shadow=0;comic=0;labelBackgroundColor=none;fontFamily=Verdana;fontSize=12;fontColor=#000000;align=center;" parent="2a3bc250acf0617d-7" vertex="1">
          <mxGeometry x="550" y="47.5" width="120" height="25" as="geometry" />
        </mxCell>
        <mxCell id="24f968d109e7d6b4-3" value="" style="ellipse;html=1;shape=endState;fillColor=#000000;strokeColor=#ff0000;rounded=1;shadow=0;comic=0;labelBackgroundColor=none;fontFamily=Verdana;fontSize=12;fontColor=#000000;align=center;" parent="2a3bc250acf0617d-7" vertex="1">
          <mxGeometry x="710" y="45" width="30" height="30" as="geometry" />
        </mxCell>
        <mxCell id="W7tiA6IGgYuLlRLCgEdG-45" value="" style="edgeStyle=orthogonalEdgeStyle;shape=connector;rounded=1;orthogonalLoop=1;jettySize=auto;html=1;strokeColor=#ff0000;align=left;verticalAlign=middle;fontFamily=Verdana;fontSize=12;fontColor=#000000;labelBackgroundColor=none;endArrow=open;endSize=8;entryX=0;entryY=0.5;entryDx=0;entryDy=0;" parent="2a3bc250acf0617d-7" source="382b91b5511bd0f7-9" target="24f968d109e7d6b4-3" edge="1">
          <mxGeometry relative="1" as="geometry">
            <mxPoint x="730" y="62.5" as="targetPoint" />
          </mxGeometry>
        </mxCell>
        <mxCell id="W7tiA6IGgYuLlRLCgEdG-47" value="End" style="text;html=1;align=center;verticalAlign=middle;resizable=0;points=[];autosize=1;strokeColor=none;fillColor=none;fontFamily=Verdana;fontSize=12;fontColor=#000000;labelBackgroundColor=none;" parent="2a3bc250acf0617d-7" vertex="1">
          <mxGeometry x="700" y="20" width="50" height="30" as="geometry" />
        </mxCell>
        <mxCell id="W7tiA6IGgYuLlRLCgEdG-46" value="Start" style="text;html=1;align=center;verticalAlign=middle;resizable=0;points=[];autosize=1;strokeColor=none;fillColor=none;fontFamily=Verdana;fontSize=12;fontColor=#000000;labelBackgroundColor=none;" parent="2a3bc250acf0617d-7" vertex="1">
          <mxGeometry y="20" width="50" height="30" as="geometry" />
        </mxCell>
        <mxCell id="W7tiA6IGgYuLlRLCgEdG-77" value="" style="edgeStyle=orthogonalEdgeStyle;shape=connector;rounded=1;orthogonalLoop=1;jettySize=auto;html=1;strokeColor=#ff0000;align=left;verticalAlign=middle;fontFamily=Verdana;fontSize=12;fontColor=#000000;labelBackgroundColor=none;endArrow=open;endSize=8;entryX=-0.009;entryY=0.111;entryDx=0;entryDy=0;entryPerimeter=0;" parent="1" source="W7tiA6IGgYuLlRLCgEdG-2" target="W7tiA6IGgYuLlRLCgEdG-11" edge="1">
          <mxGeometry relative="1" as="geometry" />
        </mxCell>
        <mxCell id="W7tiA6IGgYuLlRLCgEdG-2" value="Post processing&amp;nbsp;" style="rounded=1;whiteSpace=wrap;html=1;arcSize=24;fillColor=#ffffc0;strokeColor=#ff0000;shadow=0;comic=0;labelBackgroundColor=none;fontFamily=Verdana;fontSize=12;fontColor=#000000;align=center;" parent="1" vertex="1">
          <mxGeometry x="590" y="780" width="110" height="40" as="geometry" />
        </mxCell>
        <mxCell id="W7tiA6IGgYuLlRLCgEdG-78" value="" style="edgeStyle=orthogonalEdgeStyle;shape=connector;rounded=1;orthogonalLoop=1;jettySize=auto;html=1;strokeColor=#ff0000;align=left;verticalAlign=middle;fontFamily=Verdana;fontSize=12;fontColor=#000000;labelBackgroundColor=none;endArrow=open;endSize=8;entryX=0.001;entryY=0.133;entryDx=0;entryDy=0;entryPerimeter=0;" parent="1" source="W7tiA6IGgYuLlRLCgEdG-5" target="W7tiA6IGgYuLlRLCgEdG-33" edge="1">
          <mxGeometry relative="1" as="geometry">
            <Array as="points">
              <mxPoint x="730" y="975" />
              <mxPoint x="730" y="903" />
            </Array>
          </mxGeometry>
        </mxCell>
        <mxCell id="W7tiA6IGgYuLlRLCgEdG-5" value="Classification&amp;nbsp;" style="rounded=1;whiteSpace=wrap;html=1;arcSize=24;fillColor=#ffffc0;strokeColor=#ff0000;shadow=0;comic=0;labelBackgroundColor=none;fontFamily=Verdana;fontSize=12;fontColor=#000000;align=center;" parent="1" vertex="1">
          <mxGeometry x="595" y="960" width="110" height="30" as="geometry" />
        </mxCell>
        <mxCell id="W7tiA6IGgYuLlRLCgEdG-81" value="" style="edgeStyle=orthogonalEdgeStyle;shape=connector;rounded=1;orthogonalLoop=1;jettySize=auto;html=1;strokeColor=#ff0000;align=left;verticalAlign=middle;fontFamily=Verdana;fontSize=12;fontColor=#000000;labelBackgroundColor=none;endArrow=open;endSize=8;entryX=0.001;entryY=0.156;entryDx=0;entryDy=0;entryPerimeter=0;" parent="1" source="W7tiA6IGgYuLlRLCgEdG-8" target="2a3bc250acf0617d-7" edge="1">
          <mxGeometry relative="1" as="geometry">
            <mxPoint x="720" y="585" as="targetPoint" />
          </mxGeometry>
        </mxCell>
        <mxCell id="W7tiA6IGgYuLlRLCgEdG-8" value="Dataset" style="rounded=1;whiteSpace=wrap;html=1;arcSize=24;fillColor=#ffffc0;strokeColor=#ff0000;shadow=0;comic=0;labelBackgroundColor=none;fontFamily=Verdana;fontSize=12;fontColor=#000000;align=center;" parent="1" vertex="1">
          <mxGeometry x="670" y="665" width="100" height="40" as="geometry" />
        </mxCell>
        <mxCell id="W7tiA6IGgYuLlRLCgEdG-79" value="" style="edgeStyle=orthogonalEdgeStyle;shape=connector;rounded=1;orthogonalLoop=1;jettySize=auto;html=1;strokeColor=#ff0000;align=left;verticalAlign=middle;fontFamily=Verdana;fontSize=12;fontColor=#000000;labelBackgroundColor=none;endArrow=open;endSize=8;entryX=0.011;entryY=0.133;entryDx=0;entryDy=0;entryPerimeter=0;" parent="1" source="W7tiA6IGgYuLlRLCgEdG-9" target="W7tiA6IGgYuLlRLCgEdG-33" edge="1">
          <mxGeometry relative="1" as="geometry">
            <mxPoint x="750" y="890" as="targetPoint" />
          </mxGeometry>
        </mxCell>
        <mxCell id="W7tiA6IGgYuLlRLCgEdG-9" value="Feature Extraction" style="rounded=1;whiteSpace=wrap;html=1;arcSize=24;fillColor=#ffffc0;strokeColor=#ff0000;shadow=0;comic=0;labelBackgroundColor=none;fontFamily=Verdana;fontSize=12;fontColor=#000000;align=center;" parent="1" vertex="1">
          <mxGeometry x="590" y="910" width="120" height="30" as="geometry" />
        </mxCell>
        <mxCell id="W7tiA6IGgYuLlRLCgEdG-75" value="" style="edgeStyle=orthogonalEdgeStyle;shape=connector;rounded=1;orthogonalLoop=1;jettySize=auto;html=1;strokeColor=#ff0000;align=left;verticalAlign=middle;fontFamily=Verdana;fontSize=12;fontColor=#000000;labelBackgroundColor=none;endArrow=open;endSize=8;exitX=0.5;exitY=1;exitDx=0;exitDy=0;" parent="1" source="W7tiA6IGgYuLlRLCgEdG-11" target="W7tiA6IGgYuLlRLCgEdG-33" edge="1">
          <mxGeometry relative="1" as="geometry">
            <mxPoint x="1180" y="860" as="sourcePoint" />
            <mxPoint x="1185" y="908" as="targetPoint" />
          </mxGeometry>
        </mxCell>
        <mxCell id="W7tiA6IGgYuLlRLCgEdG-11" value="Model Workflow" style="swimlane;whiteSpace=wrap;html=1;rounded=1;shadow=0;comic=0;labelBackgroundColor=none;strokeWidth=1;fontFamily=Verdana;fontSize=12;align=center;startSize=23;" parent="1" vertex="1">
          <mxGeometry x="750" y="760" width="870" height="90" as="geometry" />
        </mxCell>
        <mxCell id="W7tiA6IGgYuLlRLCgEdG-12" style="edgeStyle=elbowEdgeStyle;html=1;labelBackgroundColor=none;endArrow=open;endSize=8;strokeColor=#ff0000;fontFamily=Verdana;fontSize=12;align=left;" parent="W7tiA6IGgYuLlRLCgEdG-11" source="W7tiA6IGgYuLlRLCgEdG-13" target="W7tiA6IGgYuLlRLCgEdG-18" edge="1">
          <mxGeometry relative="1" as="geometry" />
        </mxCell>
        <mxCell id="W7tiA6IGgYuLlRLCgEdG-13" value="Select Model" style="rounded=1;whiteSpace=wrap;html=1;arcSize=24;fillColor=#ffffc0;strokeColor=#ff0000;shadow=0;comic=0;labelBackgroundColor=none;fontFamily=Verdana;fontSize=12;fontColor=#000000;align=center;" parent="W7tiA6IGgYuLlRLCgEdG-11" vertex="1">
          <mxGeometry x="70" y="45" width="120" height="25" as="geometry" />
        </mxCell>
        <mxCell id="W7tiA6IGgYuLlRLCgEdG-14" value="" style="ellipse;html=1;shape=endState;fillColor=#000000;strokeColor=#ff0000;rounded=1;shadow=0;comic=0;labelBackgroundColor=none;fontFamily=Verdana;fontSize=12;fontColor=#000000;align=center;" parent="W7tiA6IGgYuLlRLCgEdG-11" vertex="1">
          <mxGeometry x="830" y="42.5" width="30" height="30" as="geometry" />
        </mxCell>
        <mxCell id="W7tiA6IGgYuLlRLCgEdG-58" value="" style="edgeStyle=orthogonalEdgeStyle;shape=connector;rounded=1;orthogonalLoop=1;jettySize=auto;html=1;strokeColor=#ff0000;align=left;verticalAlign=middle;fontFamily=Verdana;fontSize=12;fontColor=#000000;labelBackgroundColor=none;endArrow=open;endSize=8;" parent="W7tiA6IGgYuLlRLCgEdG-11" source="W7tiA6IGgYuLlRLCgEdG-16" target="W7tiA6IGgYuLlRLCgEdG-13" edge="1">
          <mxGeometry relative="1" as="geometry" />
        </mxCell>
        <mxCell id="W7tiA6IGgYuLlRLCgEdG-16" value="" style="ellipse;html=1;shape=startState;fillColor=#000000;strokeColor=#ff0000;rounded=1;shadow=0;comic=0;labelBackgroundColor=none;fontFamily=Verdana;fontSize=12;fontColor=#000000;align=center;direction=south;" parent="W7tiA6IGgYuLlRLCgEdG-11" vertex="1">
          <mxGeometry x="10" y="42.5" width="30" height="30" as="geometry" />
        </mxCell>
        <mxCell id="W7tiA6IGgYuLlRLCgEdG-17" style="edgeStyle=elbowEdgeStyle;html=1;labelBackgroundColor=none;endArrow=open;endSize=8;strokeColor=#ff0000;fontFamily=Verdana;fontSize=12;align=left;" parent="W7tiA6IGgYuLlRLCgEdG-11" source="W7tiA6IGgYuLlRLCgEdG-18" target="W7tiA6IGgYuLlRLCgEdG-20" edge="1">
          <mxGeometry relative="1" as="geometry" />
        </mxCell>
        <mxCell id="W7tiA6IGgYuLlRLCgEdG-18" value="Train Model" style="rounded=1;whiteSpace=wrap;html=1;arcSize=24;fillColor=#ffffc0;strokeColor=#ff0000;shadow=0;comic=0;labelBackgroundColor=none;fontFamily=Verdana;fontSize=12;fontColor=#000000;align=center;" parent="W7tiA6IGgYuLlRLCgEdG-11" vertex="1">
          <mxGeometry x="230" y="45" width="120" height="25" as="geometry" />
        </mxCell>
        <mxCell id="W7tiA6IGgYuLlRLCgEdG-20" value="Evaluate Model" style="rounded=1;whiteSpace=wrap;html=1;arcSize=24;fillColor=#ffffc0;strokeColor=#ff0000;shadow=0;comic=0;labelBackgroundColor=none;fontFamily=Verdana;fontSize=12;fontColor=#000000;align=center;" parent="W7tiA6IGgYuLlRLCgEdG-11" vertex="1">
          <mxGeometry x="380" y="45" width="120" height="25" as="geometry" />
        </mxCell>
        <mxCell id="382b91b5511bd0f7-10" value="&lt;code data-end=&quot;862&quot; data-start=&quot;847&quot;&gt;Optimize Model&lt;/code&gt;" style="rounded=1;whiteSpace=wrap;html=1;arcSize=24;fillColor=#ffffc0;strokeColor=#ff0000;shadow=0;comic=0;labelBackgroundColor=none;fontFamily=Verdana;fontSize=12;fontColor=#000000;align=center;" parent="W7tiA6IGgYuLlRLCgEdG-11" vertex="1">
          <mxGeometry x="530" y="45" width="120" height="25" as="geometry" />
        </mxCell>
        <mxCell id="W7tiA6IGgYuLlRLCgEdG-19" style="edgeStyle=elbowEdgeStyle;html=1;labelBackgroundColor=none;endArrow=open;endSize=8;strokeColor=#ff0000;fontFamily=Verdana;fontSize=12;align=left;entryX=0;entryY=0.5;entryDx=0;entryDy=0;" parent="W7tiA6IGgYuLlRLCgEdG-11" source="W7tiA6IGgYuLlRLCgEdG-20" target="382b91b5511bd0f7-10" edge="1">
          <mxGeometry relative="1" as="geometry">
            <mxPoint x="770" y="100" as="targetPoint" />
          </mxGeometry>
        </mxCell>
        <mxCell id="382b91b5511bd0f7-5" value="&lt;code data-end=&quot;906&quot; data-start=&quot;892&quot;&gt;Retrain Model&lt;/code&gt;" style="rounded=1;whiteSpace=wrap;html=1;arcSize=24;fillColor=#ffffc0;strokeColor=#ff0000;shadow=0;comic=0;labelBackgroundColor=none;fontFamily=Verdana;fontSize=12;fontColor=#000000;align=center;" parent="W7tiA6IGgYuLlRLCgEdG-11" vertex="1">
          <mxGeometry x="680" y="45" width="120" height="25" as="geometry" />
        </mxCell>
        <mxCell id="2a3bc250acf0617d-9" style="edgeStyle=orthogonalEdgeStyle;html=1;labelBackgroundColor=none;endArrow=open;endSize=8;strokeColor=#ff0000;fontFamily=Verdana;fontSize=12;align=left;exitX=1;exitY=0.5;exitDx=0;exitDy=0;entryX=0;entryY=0.5;entryDx=0;entryDy=0;" parent="W7tiA6IGgYuLlRLCgEdG-11" source="382b91b5511bd0f7-10" target="382b91b5511bd0f7-5" edge="1">
          <mxGeometry relative="1" as="geometry">
            <mxPoint x="300" y="-560" as="sourcePoint" />
            <mxPoint x="730" y="-66" as="targetPoint" />
          </mxGeometry>
        </mxCell>
        <mxCell id="W7tiA6IGgYuLlRLCgEdG-22" style="edgeStyle=orthogonalEdgeStyle;html=1;labelBackgroundColor=none;endArrow=open;endSize=8;strokeColor=#ff0000;fontFamily=Verdana;fontSize=12;align=left;exitX=1;exitY=0.5;exitDx=0;exitDy=0;entryX=0;entryY=0.5;entryDx=0;entryDy=0;" parent="W7tiA6IGgYuLlRLCgEdG-11" source="382b91b5511bd0f7-5" target="W7tiA6IGgYuLlRLCgEdG-14" edge="1">
          <mxGeometry relative="1" as="geometry">
            <mxPoint x="1030" y="120" as="targetPoint" />
          </mxGeometry>
        </mxCell>
        <mxCell id="W7tiA6IGgYuLlRLCgEdG-48" value="End" style="text;html=1;align=center;verticalAlign=middle;resizable=0;points=[];autosize=1;strokeColor=none;fillColor=none;fontFamily=Verdana;fontSize=12;fontColor=#000000;labelBackgroundColor=none;" parent="W7tiA6IGgYuLlRLCgEdG-11" vertex="1">
          <mxGeometry x="820" y="20" width="50" height="30" as="geometry" />
        </mxCell>
        <mxCell id="W7tiA6IGgYuLlRLCgEdG-49" value="Start" style="text;html=1;align=center;verticalAlign=middle;resizable=0;points=[];autosize=1;strokeColor=none;fillColor=none;fontFamily=Verdana;fontSize=12;fontColor=#000000;labelBackgroundColor=none;" parent="W7tiA6IGgYuLlRLCgEdG-11" vertex="1">
          <mxGeometry y="20" width="50" height="30" as="geometry" />
        </mxCell>
        <mxCell id="2a3bc250acf0617d-8" value="&lt;font style=&quot;font-size: 6px;&quot;&gt;Lession Segmentation&lt;/font&gt;" style="shape=umlFrame;whiteSpace=wrap;html=1;rounded=1;shadow=0;comic=0;labelBackgroundColor=none;strokeWidth=1;fontFamily=Verdana;fontSize=12;align=center;" parent="1" vertex="1">
          <mxGeometry x="580" y="470" width="1050" height="540" as="geometry" />
        </mxCell>
        <mxCell id="W7tiA6IGgYuLlRLCgEdG-33" value="Testing &amp;amp; Deployment" style="swimlane;whiteSpace=wrap;html=1;rounded=1;shadow=0;comic=0;labelBackgroundColor=none;strokeWidth=1;fontFamily=Verdana;fontSize=12;align=center;startSize=23;" parent="1" vertex="1">
          <mxGeometry x="752.5" y="890" width="865" height="100" as="geometry" />
        </mxCell>
        <mxCell id="W7tiA6IGgYuLlRLCgEdG-34" style="edgeStyle=elbowEdgeStyle;html=1;labelBackgroundColor=none;endArrow=open;endSize=8;strokeColor=#ff0000;fontFamily=Verdana;fontSize=12;align=left;" parent="W7tiA6IGgYuLlRLCgEdG-33" source="W7tiA6IGgYuLlRLCgEdG-35" target="W7tiA6IGgYuLlRLCgEdG-40" edge="1">
          <mxGeometry relative="1" as="geometry" />
        </mxCell>
        <mxCell id="W7tiA6IGgYuLlRLCgEdG-35" value="Test On Unseen Data" style="rounded=1;whiteSpace=wrap;html=1;arcSize=24;fillColor=#ffffc0;strokeColor=#ff0000;shadow=0;comic=0;labelBackgroundColor=none;fontFamily=Verdana;fontSize=12;fontColor=#000000;align=center;" parent="W7tiA6IGgYuLlRLCgEdG-33" vertex="1">
          <mxGeometry x="65" y="50" width="120" height="30" as="geometry" />
        </mxCell>
        <mxCell id="W7tiA6IGgYuLlRLCgEdG-37" style="edgeStyle=elbowEdgeStyle;html=1;labelBackgroundColor=none;endArrow=open;endSize=8;strokeColor=#ff0000;fontFamily=Verdana;fontSize=12;align=left;" parent="W7tiA6IGgYuLlRLCgEdG-33" source="W7tiA6IGgYuLlRLCgEdG-38" target="W7tiA6IGgYuLlRLCgEdG-35" edge="1">
          <mxGeometry relative="1" as="geometry" />
        </mxCell>
        <mxCell id="W7tiA6IGgYuLlRLCgEdG-38" value="" style="ellipse;html=1;shape=startState;fillColor=#000000;strokeColor=#ff0000;rounded=1;shadow=0;comic=0;labelBackgroundColor=none;fontFamily=Verdana;fontSize=12;fontColor=#000000;align=center;direction=south;" parent="W7tiA6IGgYuLlRLCgEdG-33" vertex="1">
          <mxGeometry x="5" y="50" width="30" height="30" as="geometry" />
        </mxCell>
        <mxCell id="W7tiA6IGgYuLlRLCgEdG-39" style="edgeStyle=elbowEdgeStyle;html=1;labelBackgroundColor=none;endArrow=open;endSize=8;strokeColor=#ff0000;fontFamily=Verdana;fontSize=12;align=left;" parent="W7tiA6IGgYuLlRLCgEdG-33" source="W7tiA6IGgYuLlRLCgEdG-40" target="W7tiA6IGgYuLlRLCgEdG-42" edge="1">
          <mxGeometry relative="1" as="geometry" />
        </mxCell>
        <mxCell id="W7tiA6IGgYuLlRLCgEdG-40" value="Segment Lesions" style="rounded=1;whiteSpace=wrap;html=1;arcSize=24;fillColor=#ffffc0;strokeColor=#ff0000;shadow=0;comic=0;labelBackgroundColor=none;fontFamily=Verdana;fontSize=12;fontColor=#000000;align=center;" parent="W7tiA6IGgYuLlRLCgEdG-33" vertex="1">
          <mxGeometry x="215" y="50" width="120" height="30" as="geometry" />
        </mxCell>
        <mxCell id="W7tiA6IGgYuLlRLCgEdG-42" value="Visualize Results" style="rounded=1;whiteSpace=wrap;html=1;arcSize=24;fillColor=#ffffc0;strokeColor=#ff0000;shadow=0;comic=0;labelBackgroundColor=none;fontFamily=Verdana;fontSize=12;fontColor=#000000;align=center;" parent="W7tiA6IGgYuLlRLCgEdG-33" vertex="1">
          <mxGeometry x="375" y="50" width="120" height="30" as="geometry" />
        </mxCell>
        <mxCell id="382b91b5511bd0f7-6" value="Generate Report" style="rounded=1;whiteSpace=wrap;html=1;arcSize=24;fillColor=#ffffc0;strokeColor=#ff0000;shadow=0;comic=0;labelBackgroundColor=none;fontFamily=Verdana;fontSize=12;fontColor=#000000;align=center;" parent="W7tiA6IGgYuLlRLCgEdG-33" vertex="1">
          <mxGeometry x="525" y="50" width="120" height="30" as="geometry" />
        </mxCell>
        <mxCell id="W7tiA6IGgYuLlRLCgEdG-41" style="edgeStyle=elbowEdgeStyle;html=1;labelBackgroundColor=none;endArrow=open;endSize=8;strokeColor=#ff0000;fontFamily=Verdana;fontSize=12;align=left;entryX=0;entryY=0.5;entryDx=0;entryDy=0;" parent="W7tiA6IGgYuLlRLCgEdG-33" source="W7tiA6IGgYuLlRLCgEdG-42" target="382b91b5511bd0f7-6" edge="1">
          <mxGeometry relative="1" as="geometry" />
        </mxCell>
        <mxCell id="382b91b5511bd0f7-7" value="Deploy Model" style="rounded=1;whiteSpace=wrap;html=1;arcSize=24;fillColor=#ffffc0;strokeColor=#ff0000;shadow=0;comic=0;labelBackgroundColor=none;fontFamily=Verdana;fontSize=12;fontColor=#000000;align=center;" parent="W7tiA6IGgYuLlRLCgEdG-33" vertex="1">
          <mxGeometry x="675" y="50" width="120" height="30" as="geometry" />
        </mxCell>
        <mxCell id="W7tiA6IGgYuLlRLCgEdG-51" value="" style="edgeStyle=orthogonalEdgeStyle;shape=connector;rounded=1;orthogonalLoop=1;jettySize=auto;html=1;strokeColor=#ff0000;align=left;verticalAlign=middle;fontFamily=Verdana;fontSize=12;fontColor=#000000;labelBackgroundColor=none;endArrow=open;endSize=8;entryX=0;entryY=0.5;entryDx=0;entryDy=0;" parent="W7tiA6IGgYuLlRLCgEdG-33" source="382b91b5511bd0f7-6" target="382b91b5511bd0f7-7" edge="1">
          <mxGeometry relative="1" as="geometry">
            <mxPoint x="725" y="80" as="targetPoint" />
          </mxGeometry>
        </mxCell>
        <mxCell id="W7tiA6IGgYuLlRLCgEdG-36" value="" style="ellipse;html=1;shape=endState;fillColor=#000000;strokeColor=#ff0000;rounded=1;shadow=0;comic=0;labelBackgroundColor=none;fontFamily=Verdana;fontSize=12;fontColor=#000000;align=center;" parent="W7tiA6IGgYuLlRLCgEdG-33" vertex="1">
          <mxGeometry x="825" y="50" width="30" height="30" as="geometry" />
        </mxCell>
        <mxCell id="W7tiA6IGgYuLlRLCgEdG-53" value="" style="edgeStyle=orthogonalEdgeStyle;shape=connector;rounded=1;orthogonalLoop=1;jettySize=auto;html=1;strokeColor=#ff0000;align=left;verticalAlign=middle;fontFamily=Verdana;fontSize=12;fontColor=#000000;labelBackgroundColor=none;endArrow=open;endSize=8;entryX=0;entryY=0.5;entryDx=0;entryDy=0;" parent="W7tiA6IGgYuLlRLCgEdG-33" source="382b91b5511bd0f7-7" target="W7tiA6IGgYuLlRLCgEdG-36" edge="1">
          <mxGeometry relative="1" as="geometry">
            <mxPoint x="875" y="80" as="targetPoint" />
          </mxGeometry>
        </mxCell>
        <mxCell id="W7tiA6IGgYuLlRLCgEdG-55" value="End" style="text;html=1;align=center;verticalAlign=middle;resizable=0;points=[];autosize=1;strokeColor=none;fillColor=none;fontFamily=Verdana;fontSize=12;fontColor=#000000;labelBackgroundColor=none;" parent="W7tiA6IGgYuLlRLCgEdG-33" vertex="1">
          <mxGeometry x="815" y="20" width="50" height="30" as="geometry" />
        </mxCell>
        <mxCell id="W7tiA6IGgYuLlRLCgEdG-56" value="Start" style="text;html=1;align=center;verticalAlign=middle;resizable=0;points=[];autosize=1;strokeColor=none;fillColor=none;fontFamily=Verdana;fontSize=12;fontColor=#000000;labelBackgroundColor=none;" parent="W7tiA6IGgYuLlRLCgEdG-33" vertex="1">
          <mxGeometry x="5" y="30" width="50" height="30" as="geometry" />
        </mxCell>
        <mxCell id="W7tiA6IGgYuLlRLCgEdG-94" value="" style="edgeStyle=orthogonalEdgeStyle;shape=connector;rounded=1;orthogonalLoop=1;jettySize=auto;html=1;strokeColor=#ff0000;align=left;verticalAlign=middle;fontFamily=Verdana;fontSize=12;fontColor=#000000;labelBackgroundColor=none;endArrow=open;endSize=8;" parent="1" source="W7tiA6IGgYuLlRLCgEdG-82" target="W7tiA6IGgYuLlRLCgEdG-83" edge="1">
          <mxGeometry relative="1" as="geometry" />
        </mxCell>
        <mxCell id="W7tiA6IGgYuLlRLCgEdG-95" value="sees" style="edgeLabel;html=1;align=center;verticalAlign=middle;resizable=0;points=[];rounded=1;shadow=0;comic=0;strokeColor=#ff0000;arcSize=24;fontFamily=Verdana;fontSize=12;fontColor=#000000;labelBackgroundColor=none;fillColor=#ffffc0;" parent="W7tiA6IGgYuLlRLCgEdG-94" vertex="1" connectable="0">
          <mxGeometry x="-0.1714" y="9" relative="1" as="geometry">
            <mxPoint as="offset" />
          </mxGeometry>
        </mxCell>
        <mxCell id="W7tiA6IGgYuLlRLCgEdG-82" value="Researcher" style="shape=umlActor;verticalLabelPosition=bottom;verticalAlign=top;html=1;outlineConnect=0;rounded=1;shadow=0;comic=0;strokeColor=#ff0000;align=center;arcSize=24;fontFamily=Verdana;fontSize=12;fontColor=#000000;labelBackgroundColor=none;fillColor=#ffffc0;" parent="1" vertex="1">
          <mxGeometry x="1040" y="480" width="50" height="100" as="geometry" />
        </mxCell>
        <mxCell id="W7tiA6IGgYuLlRLCgEdG-87" value="" style="edgeStyle=orthogonalEdgeStyle;shape=connector;rounded=1;orthogonalLoop=1;jettySize=auto;html=1;strokeColor=#ff0000;align=left;verticalAlign=middle;fontFamily=Verdana;fontSize=12;fontColor=#000000;labelBackgroundColor=none;endArrow=open;endSize=8;" parent="1" edge="1">
          <mxGeometry relative="1" as="geometry">
            <mxPoint x="1185" y="600" as="sourcePoint" />
            <mxPoint x="1185" y="640" as="targetPoint" />
          </mxGeometry>
        </mxCell>
        <mxCell id="W7tiA6IGgYuLlRLCgEdG-88" value="includes" style="edgeLabel;html=1;align=center;verticalAlign=middle;resizable=0;points=[];rounded=1;shadow=0;comic=0;strokeColor=#ff0000;arcSize=24;fontFamily=Verdana;fontSize=12;fontColor=#000000;labelBackgroundColor=none;fillColor=#ffffc0;" parent="W7tiA6IGgYuLlRLCgEdG-87" vertex="1" connectable="0">
          <mxGeometry x="-0.2374" y="1" relative="1" as="geometry">
            <mxPoint x="34" as="offset" />
          </mxGeometry>
        </mxCell>
        <mxCell id="W7tiA6IGgYuLlRLCgEdG-83" value="System" style="shape=umlActor;verticalLabelPosition=bottom;verticalAlign=top;html=1;outlineConnect=0;rounded=1;shadow=0;comic=0;strokeColor=#ff0000;align=center;arcSize=24;fontFamily=Verdana;fontSize=12;fontColor=#000000;labelBackgroundColor=none;fillColor=#ffffc0;" parent="1" vertex="1">
          <mxGeometry x="1160" y="480" width="50" height="100" as="geometry" />
        </mxCell>
        <mxCell id="W7tiA6IGgYuLlRLCgEdG-89" value="" style="edgeStyle=orthogonalEdgeStyle;shape=connector;rounded=1;orthogonalLoop=1;jettySize=auto;html=1;strokeColor=#ff0000;align=left;verticalAlign=middle;fontFamily=Verdana;fontSize=12;fontColor=#000000;labelBackgroundColor=none;endArrow=open;endSize=8;" parent="1" source="W7tiA6IGgYuLlRLCgEdG-84" target="W7tiA6IGgYuLlRLCgEdG-83" edge="1">
          <mxGeometry relative="1" as="geometry" />
        </mxCell>
        <mxCell id="W7tiA6IGgYuLlRLCgEdG-84" value="Developer" style="shape=umlActor;verticalLabelPosition=bottom;verticalAlign=top;html=1;outlineConnect=0;rounded=1;shadow=0;comic=0;strokeColor=#ff0000;align=center;arcSize=24;fontFamily=Verdana;fontSize=12;fontColor=#000000;labelBackgroundColor=none;fillColor=#ffffc0;" parent="1" vertex="1">
          <mxGeometry x="1310" y="480" width="50" height="100" as="geometry" />
        </mxCell>
        <mxCell id="W7tiA6IGgYuLlRLCgEdG-90" value="develops" style="text;html=1;align=center;verticalAlign=middle;resizable=0;points=[];autosize=1;strokeColor=none;fillColor=none;fontFamily=Verdana;fontSize=12;fontColor=#000000;labelBackgroundColor=none;" parent="1" vertex="1">
          <mxGeometry x="1230" y="505" width="80" height="30" as="geometry" />
        </mxCell>
        <mxCell id="W7tiA6IGgYuLlRLCgEdG-96" value="STATE MACHINE DIAGRAM" style="text;html=1;align=center;verticalAlign=middle;resizable=0;points=[];autosize=1;strokeColor=none;fillColor=none;fontFamily=Verdana;fontSize=12;fontColor=#000000;labelBackgroundColor=none;" parent="1" vertex="1">
          <mxGeometry x="1010" y="440" width="190" height="30" as="geometry" />
        </mxCell>
      </root>
    </mxGraphModel>
  </diagram>
</mxfile>
